<svg aria-hidden="true" xmlns="http://www.w3.org/2000/svg">
  <defs>
    <symbol id="favicon" viewBox="0 0 32 32">
      <path fill="#fff" style="fill:var(--color1, #fff)" d="M0 0h32v32H0V0z"/>
      <path fill="#ffe550" style="fill:var(--color2, #ffe550)" d="M13.557 6.456c1.012-1.982 3.84-1.982 4.852 0l1.281 2.51a2.726 2.726 0 0 0 1.999 1.453l2.775.441c2.198.35 3.073 3.049 1.499 4.625l-1.98 1.983a2.73 2.73 0 0 0-.765 2.356l.437 2.773c.347 2.2-1.942 3.868-3.925 2.859l-2.513-1.278a2.722 2.722 0 0 0-2.467 0l-2.513 1.278c-1.983 1.009-4.272-.659-3.925-2.859l.437-2.773a2.731 2.731 0 0 0-.765-2.356l-1.98-1.983c-1.574-1.576-.699-4.275 1.499-4.625l2.775-.441a2.728 2.728 0 0 0 1.999-1.453l1.281-2.51z"/>
      <path fill="#bbf330" style="fill:var(--color3, #bbf330)" d="M16 32C7.163 32 0 24.837 0 16S7.163 0 16 0s16 7.163 16 16-7.163 16-16 16zm0-1.706c7.899 0 14.297-6.402 14.297-14.294S23.899 1.706 16 1.706 1.703 8.108 1.703 16 8.101 30.294 16 30.294z"/>
    </symbol>
    <symbol id="menu-btn" viewBox="0 0 32 32">
      <path fill="#7eb101" style="fill:var(--color4, #7eb101)" d="M2.666 8A1.335 1.335 0 0 1 4 6.666h24A1.33 1.33 0 0 1 29.333 8 1.333 1.333 0 0 1 28 9.334H4A1.335 1.335 0 0 1 2.666 8zm0 8.043A1.33 1.33 0 0 1 4 14.71h24a1.333 1.333 0 1 1 0 2.666H4a1.333 1.333 0 0 1-1.334-1.333zM4 22.752a1.337 1.337 0 0 0-1.334 1.333A1.33 1.33 0 0 0 4 25.418h24a1.333 1.333 0 1 0 0-2.666H4z"/>
    </symbol>
    <symbol id="click-left" viewBox="0 0 37 32">
      <path fill="#fff" style="fill:var(--color1, #fff)" d="M2.667 21.333v-16A5.333 5.333 0 0 1 8 0h21.333a5.333 5.333 0 0 1 5.333 5.333v16a5.333 5.333 0 0 1-5.333 5.333H8a5.333 5.333 0 0 1-5.333-5.333z"/>
      <path fill="#2c2c2c" style="fill:var(--color5, #2c2c2c)" d="m11.634 13.937 9.288 8.85a.832.832 0 0 0 1.15 0l.01-.01a.78.78 0 0 0 .238-.555.763.763 0 0 0-.238-.555l-8.747-8.333 8.747-8.33a.78.78 0 0 0 .238-.555.763.763 0 0 0-.238-.555l-.01-.01a.832.832 0 0 0-1.15 0l-9.288 8.85a.82.82 0 0 0-.258.603.837.837 0 0 0 .258.603z"/>
    </symbol>
    <symbol id="click-right" viewBox="0 0 37 32">
      <path fill="#fff" style="fill:var(--color1, #fff)" d="M34.667 5.333v16a5.333 5.333 0 0 1-5.333 5.333H8.001a5.333 5.333 0 0 1-5.333-5.333v-16A5.333 5.333 0 0 1 8.001 0h21.333a5.333 5.333 0 0 1 5.333 5.333z"/>
      <path fill="#2c2c2c" style="fill:var(--color5, #2c2c2c)" d="m25.7 12.73-9.288-8.85a.832.832 0 0 0-1.15 0l-.01.01a.78.78 0 0 0-.238.555.763.763 0 0 0 .238.555l8.747 8.333-8.747 8.33a.78.78 0 0 0-.238.555.763.763 0 0 0 .238.555l.01.01a.832.832 0 0 0 1.15 0l9.288-8.85a.82.82 0 0 0 .258-.603.837.837 0 0 0-.258-.603z"/>
    </symbol>
    <symbol id="rocket" viewBox="0 0 32 32">
      <path fill="#7eb101" style="fill:var(--color4, #7eb101)" d="m7.233 13.633 3.533 1.5c.4-.8.828-1.589 1.283-2.367s.939-1.522 1.45-2.233L10.866 10l-3.633 3.633zm5.134 2.7 4.433 4.433c1.267-.578 2.456-1.233 3.567-1.967s2.011-1.444 2.7-2.133c1.8-1.8 3.122-3.644 3.967-5.533s1.3-4.022 1.367-6.4c-2.378.067-4.511.522-6.4 1.367s-3.733 2.167-5.533 3.967c-.689.689-1.4 1.589-2.133 2.7s-1.389 2.3-1.967 3.567zm7.633-3.2c-.444-.444-.667-.995-.667-1.65s.222-1.206.667-1.65.994-.667 1.65-.667c.656 0 1.206.222 1.65.667s.667.994.667 1.65c0 .655-.222 1.206-.667 1.65s-.994.667-1.65.667-1.206-.222-1.65-.667zM19.5 25.9l3.633-3.633-.533-2.633c-.711.511-1.456.994-2.233 1.45S18.8 21.967 18 22.367l1.5 3.533zM30.367 2.767c.2 3.022-.178 5.778-1.133 8.267s-2.533 4.833-4.733 7.033l-.133.133.733 3.667c.067.333.05.656-.05.967s-.272.589-.517.833l-5.7 5.733-2.833-6.6-5.667-5.667-6.6-2.833 5.733-5.7c.244-.244.522-.417.833-.517s.633-.117.967-.05l3.667.733c.022-.022.044-.039.067-.05s.044-.028.067-.05c2.2-2.2 4.544-3.783 7.033-4.75s5.244-1.35 8.267-1.15zm-24.4 18.4c.778-.778 1.728-1.172 2.85-1.183s2.072.372 2.85 1.15c.778.778 1.161 1.728 1.15 2.85s-.406 2.072-1.183 2.85c-.578.578-1.472 1.055-2.683 1.433s-3.028.733-5.45 1.067c.333-2.422.683-4.244 1.05-5.467s.839-2.122 1.417-2.7zm1.4 1.433c-.311.333-.589.856-.833 1.567s-.456 1.622-.633 2.733c1.111-.178 2.022-.389 2.733-.633s1.233-.522 1.567-.833c.422-.378.639-.85.65-1.417s-.183-1.061-.583-1.483c-.422-.4-.917-.595-1.483-.583s-1.039.228-1.417.65z"/>
    </symbol>
    <symbol id="touch-app" viewBox="0 0 32 32">
      <path fill="#7eb101" style="fill:var(--color4, #7eb101)" d="M15.5 1.333c2.022 0 3.75.706 5.183 2.117s2.15 3.128 2.15 5.15c0 1.156-.25 2.244-.75 3.267s-1.206 1.889-2.117 2.6h-1.133V12.8c.645-.511 1.139-1.133 1.483-1.867s.517-1.511.517-2.333c0-1.467-.522-2.711-1.567-3.733s-2.3-1.533-3.767-1.533-2.722.511-3.767 1.533c-1.044 1.022-1.567 2.267-1.567 3.733 0 .822.172 1.6.517 2.333s.839 1.356 1.483 1.867v2.4c-1.245-.645-2.222-1.556-2.933-2.733S8.165 10 8.165 8.6c0-2.022.717-3.739 2.15-5.15s3.161-2.117 5.183-2.117zm-1.267 28c-.378 0-.733-.072-1.067-.217s-.622-.339-.867-.583l-6.867-6.867 1.867-1.933c.311-.311.661-.55 1.05-.717s.794-.194 1.217-.083l2.6.6V8.666c0-.933.322-1.722.967-2.367s1.433-.967 2.367-.967 1.722.322 2.367.967c.644.644.967 1.433.967 2.367v5.733h.867c.111 0 .211.022.3.067s.189.089.3.133l4.933 2.4c.533.244.928.639 1.183 1.183s.328 1.106.217 1.683l-1.2 7.267c-.111.645-.422 1.172-.933 1.583s-1.089.617-1.733.617h-8.533zm-.266-2h9.367l1.433-8.3-6.1-3.033h-1.833V8.667c0-.4-.122-.722-.367-.967s-.567-.367-.967-.367-.722.122-.967.367c-.244.244-.367.567-.367.967v13.3l-5.133-1.1-.767.767 5.7 5.7zm9.366 0z"/>
    </symbol>
    <symbol id="stars" viewBox="0 0 200 32">
      <path fill="#ffe550" style="fill:var(--color2, #ffe550)" d="M15.639 1.037c.593-1.383 2.611-1.383 3.204 0l3.498 8.164c.25.583.815.982 1.463 1.032l9.079.707c1.538.12 2.162 1.983.99 2.958l-6.917 5.752a1.656 1.656 0 0 0-.559 1.67l2.113 8.6c.358 1.457-1.275 2.609-2.592 1.828l-7.773-4.609a1.781 1.781 0 0 0-1.809 0l-7.773 4.609c-1.317.781-2.95-.371-2.592-1.828l2.113-8.6a1.656 1.656 0 0 0-.559-1.67L.607 13.898c-1.172-.975-.548-2.838.99-2.958l9.079-.707a1.73 1.73 0 0 0 1.463-1.032l3.498-8.164zM57.019 1.037c.593-1.383 2.611-1.383 3.204 0l3.498 8.164c.25.583.815.982 1.463 1.032l9.079.707c1.538.12 2.162 1.983.99 2.958l-6.917 5.752a1.656 1.656 0 0 0-.559 1.67l2.113 8.6c.358 1.457-1.275 2.609-2.592 1.828l-7.773-4.609a1.781 1.781 0 0 0-1.809 0l-7.773 4.609c-1.317.781-2.95-.371-2.592-1.828l2.113-8.6a1.656 1.656 0 0 0-.559-1.67l-6.918-5.752c-1.172-.975-.548-2.838.99-2.958l9.079-.707a1.73 1.73 0 0 0 1.463-1.032l3.498-8.164zM98.398 1.037c.593-1.383 2.611-1.383 3.204 0l3.498 8.164c.25.583.815.982 1.463 1.032l9.079.707c1.538.12 2.162 1.983.99 2.958l-6.918 5.752a1.656 1.656 0 0 0-.559 1.67l2.113 8.6c.358 1.457-1.275 2.609-2.592 1.828l-7.773-4.609a1.781 1.781 0 0 0-1.809 0l-7.773 4.609c-1.317.781-2.95-.371-2.592-1.828l2.114-8.6a1.656 1.656 0 0 0-.559-1.67l-6.918-5.752c-1.172-.975-.548-2.838.99-2.958l9.08-.707a1.731 1.731 0 0 0 1.463-1.032l3.498-8.164zM139.777 1.037c.593-1.383 2.611-1.383 3.204 0l3.498 8.164c.25.583.815.982 1.463 1.032l9.079.707c1.538.12 2.162 1.983.99 2.958l-6.918 5.752a1.656 1.656 0 0 0-.559 1.67l2.113 8.6c.358 1.457-1.275 2.609-2.592 1.828l-7.773-4.609a1.781 1.781 0 0 0-1.809 0l-7.773 4.609c-1.317.781-2.95-.371-2.592-1.828l2.114-8.6a1.656 1.656 0 0 0-.559-1.67l-6.918-5.752c-1.172-.975-.548-2.838.99-2.958l9.08-.707a1.731 1.731 0 0 0 1.463-1.032l3.498-8.164zM181.157 1.037c.593-1.383 2.611-1.383 3.204 0l3.498 8.164c.25.583.815.982 1.463 1.032l9.079.707c1.538.12 2.163 1.983.99 2.958l-6.918 5.752a1.656 1.656 0 0 0-.559 1.67l2.113 8.6c.358 1.457-1.275 2.609-2.592 1.828l-7.773-4.609a1.781 1.781 0 0 0-1.809 0l-7.773 4.609c-1.317.781-2.95-.371-2.592-1.828l2.114-8.6a1.656 1.656 0 0 0-.559-1.67l-6.918-5.752c-1.172-.975-.548-2.838.99-2.958l9.08-.707a1.731 1.731 0 0 0 1.463-1.032l3.498-8.164z"/>
    </symbol>
    <symbol id="error" viewBox="0 0 32 32">
      <path fill="none" stroke="#ff705d" style="stroke:var(--color6, #ff705d)" stroke-linejoin="round" stroke-linecap="round" stroke-width="2.286" d="M16 11.429v6.857M16.002 26.286a1.143 1.143 0 1 0 0-2.287 1.143 1.143 0 0 0 0 2.287z"/>
      <path fill="none" stroke="#ff705d" style="stroke:var(--color6, #ff705d)" stroke-linejoin="round" stroke-linecap="round" stroke-width="2.286" d="M18.036 2.4a2.286 2.286 0 0 0-4.068 0L1.397 27.543a2.281 2.281 0 0 0 .094 2.224 2.287 2.287 0 0 0 1.941 1.09h25.143a2.28 2.28 0 0 0 1.941-1.09 2.292 2.292 0 0 0 .093-2.224L18.038 2.4z"/>
    </symbol>
    <symbol id="icon-logo-1" viewBox="0 0 41 32">
     <path fill="#ffe550" style="fill: var(--color1, #ffe550)" d="M14.143 6.455c1.010-1.982 3.836-1.982 4.846 0l1.28 2.51c0.395 0.763 1.119 1.309 1.98 1.45l0.016 0.002 2.772 0.442c2.196 0.35 3.070 3.049 1.497 4.625l-1.978 1.983c-0.493 0.494-0.798 1.177-0.798 1.93 0 0.15 0.012 0.298 0.035 0.442l-0.002-0.016 0.437 2.773c0.346 2.2-1.94 3.868-3.92 2.858l-2.511-1.278c-0.358-0.186-0.783-0.296-1.232-0.296s-0.874 0.109-1.247 0.303l0.015-0.007-2.511 1.278c-1.98 1.009-4.267-0.658-3.92-2.858l0.437-2.773c0.021-0.128 0.033-0.275 0.033-0.426 0-0.753-0.305-1.436-0.798-1.93l0 0-1.978-1.983c-1.572-1.576-0.698-4.276 1.497-4.625l2.772-0.441c0.877-0.144 1.601-0.689 1.989-1.438l0.007-0.015 1.28-2.51z"></path>
     <path fill="#2c2c2c" style="fill: var(--color2, #2c2c2c)" d="M1.116 20.357l-0.021 0.005c0.002 0.074-0.001 0.374-0.011 0.9-0.003 0.524-0.004 0.868-0.002 1.032 0 0.157-0.004 0.285-0.010 0.384l0.001 0.336c-0 0.104-0.007 0.207-0.021 0.308l0.001-0.012-0.018 0.206c-0.014 0.13-0.042 0.201-0.084 0.211-0.092 0.022-0.235-0.049-0.431-0.212-0.197-0.17-0.31-0.319-0.34-0.447s-0.038-1.060-0.023-2.798c0.021-1.74-0.026-2.884-0.14-3.433-0.011-0.035-0.017-0.075-0.017-0.116 0-0.056 0.011-0.11 0.031-0.158l-0.001 0.003c0.036-0.166 0.219-0.321 0.55-0.467 0.338-0.147 0.843-0.3 1.514-0.459 0.678-0.16 1.216-0.25 1.614-0.27 0.405-0.021 0.623 0.032 0.652 0.16 0.021 0.085-0.025 0.159-0.137 0.223s-0.211 0.117-0.298 0.16c0.121-0.039 0.006 0.008-0.109 0.054l-0.239 0.085c-0.145 0.049-0.279 0.096-0.403 0.14-0.126 0.037-0.288 0.090-0.488 0.16-0.193 0.068-0.372 0.133-0.536 0.194-0.166 0.054-0.39 0.133-0.671 0.237s-0.463 0.17-0.546 0.197c0.012 0.020 0.023 0.050 0.033 0.093 0.079 0.332 0.122 1.13 0.129 2.392 0.443-0.082 0.911-0.204 1.402-0.366 0.498-0.162 0.804-0.257 0.917-0.284 0.269-0.063 0.416-0.039 0.443 0.074 0.052 0.22-0.212 0.476-0.791 0.77-0.572 0.293-1.222 0.525-1.95 0.697zM8.033 18.406c-0.058-0.247-0.153-0.465-0.282-0.66l0.005 0.008c-0.13-0.201-0.281-0.334-0.452-0.398-0.455 0.25-0.786 0.729-0.992 1.435-0.201 0.698-0.236 1.319-0.108 1.865s0.343 0.854 0.644 0.924c0.485-0.219 0.834-0.668 1.046-1.346 0.218-0.687 0.265-1.297 0.139-1.828zM5.269 19.161c0.117-0.611 0.33-1.14 0.642-1.588 0.318-0.457 0.684-0.734 1.102-0.833 0.423-0.1 0.819-0.003 1.187 0.291 0.366 0.287 0.61 0.689 0.732 1.206 0.121 0.51 0.121 1.063 0.001 1.66-0.122 0.602-0.372 1.131-0.72 1.58l0.006-0.009c-0.349 0.449-0.767 0.731-1.254 0.846-0.361 0.086-0.7-0.010-1.019-0.286s-0.538-0.669-0.658-1.179c-0.123-0.517-0.129-1.080-0.019-1.689zM12.833 17.27c-0.058-0.247-0.153-0.465-0.282-0.66l0.005 0.008c-0.129-0.201-0.281-0.334-0.452-0.398-0.455 0.25-0.786 0.728-0.992 1.434-0.201 0.698-0.236 1.32-0.107 1.865 0.129 0.546 0.343 0.854 0.643 0.925 0.486-0.22 0.834-0.668 1.047-1.347 0.218-0.687 0.265-1.296 0.138-1.828zM10.070 18.025c0.117-0.611 0.331-1.14 0.642-1.588 0.318-0.457 0.684-0.734 1.102-0.833 0.423-0.1 0.82-0.004 1.188 0.291 0.366 0.287 0.61 0.689 0.732 1.206 0.121 0.51 0.121 1.063 0.001 1.66-0.122 0.601-0.372 1.131-0.72 1.579l0.006-0.009c-0.349 0.449-0.767 0.731-1.254 0.847-0.361 0.085-0.7-0.010-1.018-0.286s-0.538-0.669-0.659-1.178c-0.122-0.517-0.129-1.080-0.019-1.689zM17.839 11.038c0.113-0.027 0.276 0.047 0.489 0.221 0.218 0.165 0.349 0.34 0.392 0.524s0.079 0.729 0.107 1.634c0.026 0.898 0.031 1.836 0.015 2.812-0.020 2.188-0.111 3.301-0.273 3.34-0.098 0.023-0.223-0.011-0.371-0.103-0.143-0.101-0.226-0.197-0.247-0.289s-0.041-0.282-0.057-0.57c-0.524 0.872-1.045 1.369-1.561 1.491-0.311 0.074-0.626-0.001-0.948-0.225-0.314-0.225-0.508-0.489-0.579-0.794-0.105-0.439-0.111-0.986-0.020-1.644 0.105-0.711 0.329-1.351 0.651-1.929l-0.015 0.028c0.327-0.601 0.742-0.961 1.243-1.079 0.502-0.119 0.923 0.099 1.263 0.654 0.006-1.586-0.077-2.818-0.247-3.698-0.050-0.212 0.002-0.337 0.158-0.374zM17.907 16.528c-0.091-0.382-0.234-0.689-0.431-0.919-0.188-0.232-0.375-0.326-0.559-0.282-0.303 0.072-0.57 0.333-0.799 0.783-0.221 0.428-0.381 0.926-0.454 1.452l-0.003 0.024c-0.070 0.525-0.063 0.964 0.021 1.318 0.025 0.122 0.103 0.221 0.208 0.275l0.002 0.001c0.067 0.035 0.145 0.055 0.229 0.055 0.045 0 0.089-0.006 0.13-0.017l-0.004 0.001c0.276-0.065 0.599-0.351 0.972-0.858 0.379-0.509 0.611-1.057 0.696-1.646l0.002-0.135-0.012-0.052zM24.671 15.892c0.137 0.581-0.009 1.131-0.438 1.652-0.431 0.513-0.985 0.849-1.663 1.010-0.671 0.159-1.266 0.117-1.786-0.127-0.522-0.25-0.819-0.532-0.892-0.843-0.051-0.212-0.012-0.334 0.115-0.364 0.113-0.027 0.375 0.090 0.788 0.352 0.156 0.090 0.352 0.163 0.589 0.219 0.244 0.055 0.486 0.054 0.726-0.004 0.495-0.117 0.902-0.348 1.223-0.693 0.329-0.347 0.457-0.669 0.387-0.966-0.045-0.191-0.23-0.406-0.554-0.643-0.302-0.223-0.645-0.435-1.004-0.619l-0.042-0.020c-0.399-0.215-0.739-0.435-1.061-0.677l0.021 0.015c-0.326-0.244-0.511-0.455-0.553-0.632-0.026-0.112-0.041-0.24-0.041-0.372 0-0.076 0.005-0.151 0.014-0.224l-0.001 0.009c0.024-0.215 0.068-0.378 0.13-0.49 0.203-0.37 0.564-0.751 1.083-1.143 0.526-0.394 0.987-0.638 1.383-0.731 0.056-0.015 0.121-0.024 0.188-0.024 0.14 0 0.27 0.038 0.382 0.105l-0.003-0.002c0.174 0.101 0.278 0.226 0.313 0.374 0.017 0.071-0.044 0.145-0.182 0.223s-0.351 0.188-0.638 0.33c-0.285 0.134-0.528 0.274-0.757 0.433l0.017-0.011c-0.738 0.505-1.074 0.901-1.005 1.191 0.037 0.156 0.553 0.494 1.548 1.013 0.414 0.221 0.77 0.474 1.091 0.767l-0.004-0.004c0.346 0.3 0.555 0.598 0.625 0.895zM27.104 16.426c0.032 0.135 0.126 0.183 0.281 0.147 0.268-0.064 0.575-0.215 0.922-0.454 0.351-0.247 0.548-0.377 0.591-0.386 0.127-0.030 0.207 0.022 0.239 0.156 0.048 0.206-0.108 0.493-0.468 0.862-0.353 0.368-0.703 0.593-1.049 0.674-0.339 0.080-0.644 0.055-0.913-0.075-0.271-0.138-0.43-0.306-0.477-0.505-0.047-0.198-0.064-0.459-0.051-0.783 0.011-0.332 0.035-0.767 0.071-1.307 0.042-0.548 0.070-1 0.082-1.354-0.314 0.156-0.527 0.248-0.64 0.274s-0.239-0.003-0.379-0.090c-0.134-0.095-0.214-0.196-0.239-0.302-0.040-0.17 0.381-0.442 1.262-0.815-0.012-0.618-0.071-1.153-0.178-1.606-0.050-0.212-0.005-0.335 0.137-0.369 0.12-0.028 0.287 0.015 0.5 0.129 0.212 0.106 0.34 0.255 0.385 0.447s0.065 0.542 0.058 1.052c0.394-0.131 0.711-0.225 0.951-0.281 0.425-0.101 0.658-0.058 0.702 0.126 0.025 0.106-0.071 0.222-0.287 0.348-0.209 0.124-0.663 0.348-1.363 0.67-0.016 0.594-0.052 1.28-0.107 2.055-0.057 0.769-0.067 1.231-0.030 1.386zM31.839 10.864c0.318-0.075 0.649 0.018 0.995 0.281 0.343 0.255 0.546 0.513 0.608 0.775 0.060 0.255 0.034 0.538-0.079 0.849 0.11 0.086 0.174 0.167 0.193 0.246 0.047 0.198 0.081 0.549 0.103 1.052 0.030 0.502 0.051 0.829 0.065 0.983 0.021 0.152 0.036 0.276 0.043 0.371 0.006 0.089 0.009 0.177 0.007 0.268 0.014 0.183-0.029 0.287-0.128 0.311-0.127 0.030-0.258-0.055-0.396-0.254-0.131-0.208-0.246-0.488-0.343-0.838-0.44 0.949-0.928 1.487-1.465 1.614-0.325 0.077-0.679 0.015-1.062-0.186-0.378-0.209-0.602-0.463-0.672-0.761-0.1-0.425-0.069-0.986 0.095-1.682 0.173-0.744 0.452-1.4 0.826-1.99l-0.015 0.026c0.379-0.606 0.788-0.96 1.225-1.065zM32.768 12.618c-0.156-0.658-0.364-0.957-0.626-0.895-0.275 0.065-0.55 0.34-0.823 0.823-0.261 0.446-0.474 0.962-0.61 1.508l-0.009 0.041c-0.137 0.556-0.171 0.979-0.103 1.27 0.027 0.119 0.109 0.215 0.217 0.261l0.002 0.001c0.115 0.047 0.24 0.055 0.374 0.023 0.332-0.079 0.654-0.39 0.965-0.935 0.31-0.551 0.47-1.169 0.48-1.852-0.004-0.111 0.041-0.189 0.135-0.234l-0.002-0.010z"></path>
     <path fill="#bbf330" style="fill: var(--color3, #bbf330)" d="M30.759 19.973c-0.303 0.075-0.542 0.306-0.641 0.602-1.906 5.649-7.244 9.719-13.535 9.719-3.815 0-7.28-1.496-9.841-3.934-0.164-0.159-0.388-0.257-0.635-0.257-0.075 0-0.147 0.009-0.217 0.026l0.006-0.001c-0.639 0.158-0.88 0.935-0.406 1.392 2.861 2.772 6.767 4.481 11.072 4.481 0.007 0 0.014 0 0.021 0h-0.001c7.078 0 13.081-4.606 15.182-10.986 0.206-0.626-0.368-1.199-1.006-1.041zM1.866 14.15c0.343-0.091 0.603-0.371 0.664-0.719l0.001-0.005c1.211-6.665 7.039-11.72 14.051-11.72 4.559 0 8.617 2.137 11.232 5.465 0.219 0.279 0.578 0.413 0.923 0.328 0.583-0.145 0.847-0.825 0.478-1.301-2.924-3.77-7.495-6.198-12.634-6.198-7.881 0-14.43 5.711-15.742 13.225-0.103 0.593 0.445 1.070 1.028 0.926zM40.615 5.332c-3.777 7.241-5.435 2.465-10.753 5.27 0.532-8.405 6.163-3.291 10.753-5.27z"></path>
   </symbol>
  </defs>
</svg>